<svg width="580" height="400" xmlns="http://www.w3.org/2000/svg">
 <!-- Created with Method Draw - http://github.com/duopixel/Method-Draw/ -->

 <g>
  <title>background</title>
  <rect fill="#fff" id="canvas_background" height="402" width="582" y="-1" x="-1"/>
  <g display="none" overflow="visible" y="0" x="0" height="100%" width="100%" id="canvasGrid">
   <rect fill="url(#gridpattern)" stroke-width="0" y="0" x="0" height="100%" width="100%"/>
  </g>
 </g>
 <g>
  <title>Layer 1</title>
  <g id="svg_6">
   <path id="svg_4" d="m224.892426,179.207001l133.333252,0l0,42.10524l-133.333252,0l0,-42.10524z" fill="#56B4D9"/>
   <path id="svg_5" d="m242.43222,192.340714l-0.467377,0l-0.381989,-1.010178l-1.527832,0l-0.359299,1.010178l-0.46994,0l1.381989,-3.603394l0.437195,0l1.387253,3.603394zm-0.987488,-1.389603l-0.565384,-1.535309c-0.018478,-0.050293 -0.036835,-0.130646 -0.055313,-0.241287l-0.010056,0c-0.016846,0.102219 -0.036026,0.182693 -0.057785,0.241287l-0.560349,1.535309l1.248886,0zm1.277313,1.243866l0,-0.497543c0.056961,0.050293 0.125137,0.095444 0.204788,0.135666c0.079544,0.040237 0.163284,0.074158 0.251236,0.101761s0.176254,0.049011 0.265137,0.064102c0.088776,0.015076 0.170883,0.022568 0.246201,0.022568c0.259659,0 0.453568,-0.048187 0.581757,-0.144455s0.192276,-0.234955 0.192276,-0.415894c0,-0.097198 -0.021393,-0.181763 -0.064087,-0.253799s-0.101761,-0.137787 -0.1772,-0.197311s-0.164551,-0.116379 -0.267593,-0.170883s-0.214035,-0.111816 -0.332977,-0.172165c-0.125626,-0.063629 -0.242935,-0.128189 -0.351822,-0.193451c-0.108887,-0.065384 -0.203506,-0.137421 -0.283981,-0.216141s-0.143738,-0.167953 -0.189697,-0.267593c-0.046082,-0.099777 -0.069122,-0.216614 -0.069122,-0.350525c0,-0.164093 0.036026,-0.307022 0.108063,-0.428421c0.072052,-0.121414 0.166672,-0.221649 0.283981,-0.300247c0.117188,-0.078705 0.25087,-0.137421 0.400818,-0.175903c0.149948,-0.038483 0.302811,-0.05777 0.458603,-0.05777c0.355087,0 0.613907,0.042694 0.776489,0.128189l0,0.47496c-0.212753,-0.147476 -0.485855,-0.221161 -0.819183,-0.221161c-0.092163,0 -0.184326,0.009583 -0.276382,0.028885c-0.092163,0.019302 -0.174271,0.050766 -0.246201,0.094269c-0.072037,0.043503 -0.13063,0.099762 -0.175903,0.168304s-0.067825,0.152512 -0.067825,0.251221c0,0.092178 0.017075,0.171707 0.051453,0.238724c0.034271,0.067017 0.085037,0.128189 0.152054,0.183395c0.067017,0.055313 0.148651,0.108887 0.245026,0.160812c0.096252,0.051926 0.207245,0.108887 0.332977,0.170883c0.129013,0.063614 0.251236,0.13063 0.366913,0.20105s0.216827,0.1483 0.304077,0.233673c0.087143,0.085388 0.156143,0.18013 0.20726,0.283981c0.051102,0.103867 0.076614,0.222809 0.076614,0.356842c0,0.177658 -0.034744,0.327957 -0.10434,0.450989c-0.06958,0.123169 -0.163269,0.22316 -0.281403,0.300232s-0.254272,0.132751 -0.408295,0.167145c-0.15416,0.034271 -0.31662,0.051453 -0.487488,0.051453c-0.056961,0 -0.127365,-0.004669 -0.211121,-0.013794c-0.08374,-0.009247 -0.169235,-0.022568 -0.256256,-0.040237c-0.087128,-0.017532 -0.169586,-0.039413 -0.247482,-0.065384s-0.140579,-0.054611 -0.187363,-0.086426zm3.252396,-1.216248l0,1.361984l-0.422104,0l0,-3.603394l0.990051,0c0.385269,0 0.683868,0.093796 0.895798,0.281403c0.211929,0.187607 0.317886,0.452286 0.317886,0.794037s-0.117661,0.621399 -0.353104,0.839294c-0.235428,0.217773 -0.553207,0.326675 -0.953568,0.326675l-0.47496,0zm0,-1.859421l0,1.477539l0.442215,0c0.291473,0 0.513916,-0.066544 0.667145,-0.199768s0.229935,-0.321167 0.229935,-0.564087c0,-0.475677 -0.281403,-0.713684 -0.84433,-0.713684l-0.494965,0zm2.475906,3.276611c-0.077087,0 -0.142807,-0.027603 -0.197311,-0.082932c-0.054504,-0.055328 -0.081635,-0.121399 -0.081635,-0.198486s0.02713,-0.143738 0.081635,-0.199753c0.054382,-0.05603 0.120117,-0.084213 0.197311,-0.084213c0.078705,0 0.145721,0.028061 0.20105,0.084213s0.082916,0.122681 0.082916,0.199753s-0.027588,0.14328 -0.082916,0.198486s-0.122452,0.082932 -0.20105,0.082932zm3.860458,-0.055206l-0.517654,0l-1.854385,-2.872162c-0.046906,-0.072052 -0.085388,-0.147491 -0.115555,-0.226212l-0.015091,0c0.013336,0.077087 0.020126,0.241989 0.020126,0.49498l0,2.603271l-0.422119,0l0,-3.603271l0.547836,0l1.804214,2.826904c0.075439,0.11731 0.123978,0.197647 0.145737,0.241287l0.010056,0c-0.016846,-0.103867 -0.025146,-0.280594 -0.025146,-0.530182l0,-2.53801l0.422104,0l0,3.603394l-0.000122,0zm2.782455,0l-1.909698,0l0,-3.603394l1.829346,0l0,0.381989l-1.407135,0l0,1.198593l1.301636,0l0,0.37941l-1.301636,0l0,1.261414l1.48761,0l0,0.381989l-0.000122,0zm2.752411,-3.221405l-1.040375,0l0,3.221405l-0.422089,0l0,-3.221405l-1.037781,0l0,-0.381989l2.500244,0l0,0.381989zm4.283386,3.070633c-0.266327,0.140717 -0.598022,0.211121 -0.995087,0.211121c-0.512634,0 -0.923035,-0.165039 -1.231232,-0.49498c-0.308319,-0.329941 -0.462341,-0.763031 -0.462341,-1.299057c0,-0.576263 0.17334,-1.041992 0.520111,-1.397079s0.78656,-0.532745 1.319183,-0.532745c0.341766,0 0.624786,0.049469 0.849365,0.1483l0,0.449829c-0.258026,-0.143982 -0.542816,-0.216141 -0.854401,-0.216141c-0.413788,0 -0.749237,0.138245 -1.006317,0.414627c-0.257172,0.276367 -0.385712,0.645721 -0.385712,1.108185c0,0.43895 0.120117,0.788528 0.360565,1.049118c0.240356,0.26059 0.555695,0.390762 0.946075,0.390762c0.361877,0 0.67511,-0.080475 0.939789,-0.241287l0,0.409348zm1.681854,0.210999c-0.380219,0 -0.68396,-0.120117 -0.910858,-0.36058c-0.22702,-0.240463 -0.340485,-0.559067 -0.340485,-0.956146c0,-0.432159 0.118134,-0.769699 0.354279,-1.012619s0.555328,-0.364334 0.957428,-0.364334c0.383606,0 0.683044,0.118134 0.898346,0.354263c0.21521,0.236267 0.322937,0.563629 0.322937,0.982468c0,0.4104 -0.116028,0.739182 -0.348083,0.986313c-0.232025,0.247131 -0.543274,0.370636 -0.933563,0.370636zm0.030182,-2.346893c-0.264679,0 -0.474152,0.090057 -0.628174,0.270172c-0.154175,0.180115 -0.231232,0.428421 -0.231232,0.745026c0,0.304794 0.077881,0.545258 0.233673,0.721176s0.364319,0.263855 0.625732,0.263855c0.266327,0 0.4711,-0.086197 0.61438,-0.258835s0.214874,-0.417892 0.214874,-0.736252c0,-0.32164 -0.071594,-0.569595 -0.214874,-0.743744s-0.348053,-0.261398 -0.61438,-0.261398zm3.179535,0.130646c-0.072052,-0.055328 -0.175903,-0.082932 -0.311584,-0.082932c-0.175903,0 -0.322937,0.082932 -0.44104,0.248779s-0.177185,0.392044 -0.177185,0.678467l0,1.311707l-0.412048,0l0,-2.573105l0.412048,0l0,0.530182l0.01004,0c0.058594,-0.180939 0.148315,-0.322113 0.26889,-0.423401s0.255432,-0.152039 0.404572,-0.152039c0.107239,0 0.18924,0.01181 0.246185,0.035202l0,0.427139l0.000122,0zm2.443268,0.972504l-1.816711,0c0.006653,0.286438 0.08374,0.507599 0.231232,0.663391c0.147339,0.155792 0.350037,0.233688 0.608063,0.233688c0.289825,0 0.556122,-0.095444 0.799042,-0.286438l0,0.387024c-0.226196,0.164093 -0.525146,0.246201 -0.897064,0.246201c-0.363495,0 -0.649109,-0.116852 -0.856842,-0.350525c-0.207703,-0.233688 -0.311584,-0.562454 -0.311584,-0.986313c0,-0.40036 0.113464,-0.726669 0.340485,-0.978714c0.226898,-0.252045 0.508881,-0.378128 0.84549,-0.378128s0.597198,0.108887 0.781525,0.32666c0.184204,0.217773 0.276367,0.520111 0.276367,0.907135l0,0.216019zm-0.422211,-0.34935c-0.00177,-0.2379 -0.059082,-0.422928 -0.17218,-0.555328s-0.270172,-0.198471 -0.4711,-0.198471c-0.194397,0 -0.359314,0.06958 -0.494965,0.208527s-0.219421,0.320831 -0.251251,0.545273l1.389496,0zm4.760101,-4.609116l-0.116943,0l0,8.654953l0.116943,0l0,-8.654953zm9.776825,6.326889l-0.215424,0l-0.838013,-2.834503c-0.041992,-0.14537 -0.065735,-0.263504 -0.070862,-0.354614l-0.010529,0c-0.00528,0.077072 -0.03241,0.193558 -0.081421,0.34935l-0.893219,2.839767l-0.215424,0l-1.11908,-3.767136l0.291595,0l0.85907,3.018478c0.038483,0.136612 0.065704,0.247833 0.08139,0.333694l0.010529,0c0.010529,-0.064804 0.041168,-0.176025 0.091919,-0.333694l0.929962,-3.018478l0.131348,0l0.85379,3.018478c0.040222,0.140121 0.067352,0.251343 0.08139,0.333694l0.010529,0c0.008789,-0.049011 0.022705,-0.105042 0.041992,-0.168198l0.88269,-3.183975l0.281067,0l-1.103302,3.767136zm1.689484,-3.367828c-0.052521,0 -0.098938,-0.019302 -0.139191,-0.057785c-0.040344,-0.038483 -0.060455,-0.087601 -0.060455,-0.147125c0,-0.057785 0.020599,-0.104691 0.061737,-0.140594c0.041199,-0.035904 0.087158,-0.053802 0.137909,-0.053802c0.05426,0 0.10199,0.017548 0.143158,0.052521c0.041168,0.03508 0.061768,0.082336 0.061768,0.141876c0,0.056015 -0.020142,0.104202 -0.060486,0.14444c-0.040222,0.040344 -0.088409,0.060471 -0.14444,0.060471zm-0.118256,3.367828l0,-2.690048l0.241638,0l0,2.690048l-0.241638,0zm2.834991,0l0,-1.565735c0,-0.646194 -0.233002,-0.969345 -0.698853,-0.969345c-0.259186,0 -0.472015,0.095078 -0.638336,0.285019c-0.166443,0.190063 -0.249603,0.425156 -0.249603,0.705383l0,1.544678l-0.241638,0l0,-2.690048l0.241638,0l0,0.488647l0.010529,0c0.196136,-0.369476 0.502563,-0.554276 0.919403,-0.554276c0.290649,0 0.513123,0.096848 0.667267,0.290298c0.154022,0.193573 0.231232,0.469818 0.231232,0.828766l0,1.636612l-0.241638,0zm2.863739,0l0,-0.488647l-0.010529,0c-0.087494,0.169937 -0.216949,0.304672 -0.388763,0.404556c-0.17157,0.099884 -0.365173,0.149704 -0.580475,0.149704c-0.330994,0 -0.601166,-0.120819 -0.810425,-0.362564c-0.209351,-0.241638 -0.313904,-0.575333 -0.313904,-1.000946c0,-0.434265 0.114258,-0.785843 0.342804,-1.054733c0.228546,-0.268768 0.524902,-0.403275 0.889221,-0.403275c0.402954,0 0.690063,0.165497 0.861664,0.49649l0.010529,0l0,-1.72316l0.241638,0l0,3.982574l-0.24176,0zm0,-1.636612c0,-0.250397 -0.079285,-0.462799 -0.237549,-0.63707c-0.158478,-0.174271 -0.371948,-0.261398 -0.639771,-0.261398c-0.281982,0 -0.514862,0.108185 -0.698822,0.324432c-0.183868,0.216385 -0.275787,0.51358 -0.275787,0.891815c0,0.371353 0.082794,0.65802 0.248291,0.860352s0.378723,0.303391 0.639648,0.303391c0.306458,0 0.543762,-0.094971 0.711823,-0.285019c0.168182,-0.190063 0.252167,-0.421646 0.252167,-0.694855l0,-0.501648zm2.086304,1.702225c-0.392273,0 -0.70282,-0.12912 -0.931213,-0.387482c-0.228668,-0.25824 -0.342926,-0.594147 -0.342926,-1.007492c0,-0.446548 0.119415,-0.796021 0.358582,-1.048187c0.238953,-0.252151 0.553802,-0.378235 0.944336,-0.378235c0.383514,0 0.686554,0.125259 0.908875,0.375671c0.222351,0.250519 0.33371,0.597183 0.33371,1.040344c0,0.418594 -0.113464,0.757553 -0.34024,1.016617c-0.226654,0.259171 -0.537079,0.388763 -0.931122,0.388763zm0.018372,-2.600693c-0.316956,0 -0.56958,0.106903 -0.757904,0.320465c-0.188171,0.213684 -0.282318,0.510529 -0.282318,0.890518c0,0.352051 0.091919,0.634857 0.275757,0.848541s0.435211,0.320465 0.753937,0.320465c0.324097,0 0.573578,-0.105026 0.748657,-0.315201s0.262695,-0.501755 0.262695,-0.874741c0,-0.383499 -0.087128,-0.67778 -0.261414,-0.88269c-0.174164,-0.20491 -0.420593,-0.307358 -0.73941,-0.307358zm4.103729,2.53508l-0.225952,0l-0.585846,-2.028061c-0.015808,-0.05603 -0.029846,-0.131348 -0.041992,-0.225967l-0.013123,0c-0.003479,0.040344 -0.021027,0.113907 -0.05249,0.220703l-0.656738,2.033325l-0.225952,0l-0.811707,-2.690048l0.267975,0l0.625244,2.146301c0.015778,0.05603 0.027954,0.131348 0.036713,0.225967l0.021057,0c0.00354,-0.050751 0.020142,-0.126083 0.049957,-0.225967l0.683044,-2.146301l0.165497,0l0.609467,2.146301c0.014038,0.050888 0.026306,0.126083 0.036713,0.225967l0.021057,0c0,-0.050751 0.014862,-0.126083 0.044678,-0.225967l0.638367,-2.146301l0.249603,0l-0.835571,2.690048zm1.124695,-0.11824l0,-0.29158c0.090973,0.078827 0.201385,0.141052 0.330994,0.186539c0.129578,0.045624 0.241638,0.068314 0.336243,0.068314c0.421997,0 0.633087,-0.172516 0.633087,-0.517548c0,-0.119064 -0.046295,-0.220703 -0.13916,-0.304672s-0.243408,-0.170761 -0.451813,-0.260117c-0.257416,-0.112045 -0.438263,-0.228073 -0.54245,-0.348068c-0.10434,-0.119888 -0.156372,-0.265732 -0.156372,-0.437439c0,-0.218933 0.083618,-0.395782 0.250977,-0.53064c0.167267,-0.134857 0.373352,-0.202225 0.618591,-0.202225c0.231232,0 0.429138,0.047256 0.593689,0.141876l0,0.273224c-0.199646,-0.129593 -0.406311,-0.194397 -0.619995,-0.194397c-0.176971,0 -0.319519,0.045975 -0.428192,0.137894s-0.162933,0.211472 -0.162933,0.358597c0,0.127838 0.03418,0.231583 0.102478,0.311356c0.068298,0.079758 0.218933,0.171219 0.451813,0.274506c0.280243,0.126068 0.47287,0.243027 0.577881,0.350754s0.157684,0.25087 0.157684,0.429474c0,0.213684 -0.080261,0.39006 -0.240356,0.529358c-0.16037,0.139175 -0.381409,0.208878 -0.663391,0.208878c-0.259064,-0.000229 -0.475342,-0.061508 -0.648773,-0.184082zm9.378357,0.11824l0,-3.767136l0.260101,0l0,3.530762l1.510529,0l0,0.236374l-1.77063,0zm2.432953,-3.367828c-0.05249,0 -0.098938,-0.019302 -0.13916,-0.057785c-0.040344,-0.038483 -0.060486,-0.087601 -0.060486,-0.147125c0,-0.057785 0.020599,-0.104691 0.061768,-0.140594c0.041168,-0.035904 0.087036,-0.053802 0.137878,-0.053802c0.054291,0 0.10199,0.017548 0.143188,0.052521c0.04126,0.03508 0.061737,0.082336 0.061737,0.141876c0,0.056015 -0.020111,0.104202 -0.060455,0.14444c-0.040344,0.040344 -0.08844,0.060471 -0.14447,0.060471zm-0.118225,3.367828l0,-2.690048l0.241638,0l0,2.690048l-0.241638,0zm2.834839,0l0,-1.565735c0,-0.646194 -0.232849,-0.969345 -0.698822,-0.969345c-0.259186,0 -0.471924,0.095078 -0.638367,0.285019c-0.166412,0.190063 -0.249603,0.425156 -0.249603,0.705383l0,1.544678l-0.241608,0l0,-2.690048l0.241608,0l0,0.488647l0.010559,0c0.196136,-0.369476 0.502686,-0.554276 0.919403,-0.554276c0.290649,0 0.513214,0.096848 0.667267,0.290298c0.154022,0.193573 0.231201,0.469818 0.231201,0.828766l0,1.636612l-0.241638,0zm2.729828,0l0,-0.488647l-0.010529,0c-0.187469,0.369583 -0.476379,0.55426 -0.866882,0.55426c-0.635803,0 -0.953583,-0.400116 -0.953583,-1.200577l0,-1.555084l0.244324,0l0,1.49472c0,0.364334 0.059998,0.628784 0.180023,0.793335c0.119873,0.164688 0.308655,0.246902 0.566071,0.246902c0.250519,0 0.453217,-0.091919 0.608063,-0.275787c0.15509,-0.183853 0.232513,-0.429001 0.232513,-0.73555l0,-1.523621l0.241638,0l0,2.690048l-0.241638,0zm1.839417,-1.318832l0.877441,1.31871l-0.307373,0l-0.709259,-1.134842l-0.010498,0l-0.094635,0.149704c-0.012177,0.021057 -0.02713,0.044678 -0.044678,0.070877l-0.593689,0.914154l-0.29425,0l0.898468,-1.313446l-0.88269,-1.376617l0.283752,0l0.598938,0.964096c0.077087,0.124329 0.123505,0.201401 0.139191,0.231232l0.010529,0l0.134033,-0.220703l0.625244,-0.974625l0.283752,0l-0.914276,1.37146zm10.01825,1.384445c-0.53241,0 -0.956726,-0.176834 -1.272858,-0.53064c-0.31604,-0.353683 -0.474182,-0.813446 -0.474182,-1.379181c0,-0.600708 0.162476,-1.081863 0.487396,-1.443512c0.324799,-0.361633 0.76828,-0.54245 1.330536,-0.54245c0.507935,0 0.918945,0.173798 1.233429,0.521408c0.314392,0.347717 0.471466,0.803497 0.471466,1.367355c0,0.62352 -0.161163,1.1138 -0.483398,1.471115s-0.752991,0.535904 -1.292389,0.535904zm0.026184,-3.659409c-0.437775,0 -0.798126,0.158478 -1.080933,0.475433c-0.282928,0.316956 -0.424316,0.732056 -0.424316,1.245148c0,0.518478 0.134033,0.931229 0.401978,1.238602s0.625275,0.461044 1.071808,0.461044c0.465851,0 0.834503,-0.151932 1.105988,-0.45578c0.271454,-0.303864 0.407135,-0.727264 0.407135,-1.270187c0,-0.532394 -0.132751,-0.94783 -0.397919,-1.246536c-0.265472,-0.29837 -0.626556,-0.447723 -1.08374,-0.447723zm2.304321,3.459763l0,-0.296844c0.269714,0.171692 0.542938,0.257431 0.819672,0.257431c0.29425,0 0.517548,-0.060822 0.669922,-0.182571s0.228546,-0.292053 0.228546,-0.511002c0,-0.192627 -0.051239,-0.346313 -0.153564,-0.461044c-0.10257,-0.114624 -0.324432,-0.270996 -0.665955,-0.468887c-0.381866,-0.222351 -0.623505,-0.408539 -0.725037,-0.558258s-0.152405,-0.322678 -0.152405,-0.518829c0,-0.26619 0.103394,-0.492157 0.309967,-0.677765c0.206635,-0.185623 0.482422,-0.278488 0.827454,-0.278488c0.224213,0 0.448303,0.037659 0.672516,0.112991l0,0.273209c-0.220673,-0.099884 -0.456146,-0.149704 -0.706665,-0.149704c-0.255768,0 -0.458344,0.064789 -0.608185,0.194382c-0.149597,0.129593 -0.224548,0.294266 -0.224548,0.493912c0,0.192642 0.051208,0.345978 0.153687,0.459778c0.102325,0.113907 0.323486,0.26889 0.663269,0.465027c0.352051,0.199646 0.586304,0.376953 0.70282,0.531921c0.116364,0.154984 0.174591,0.333221 0.174591,0.534622c0,0.289017 -0.10022,0.524567 -0.30069,0.706665c-0.200592,0.18222 -0.483856,0.273224 -0.849945,0.273224c-0.129578,0 -0.278961,-0.020126 -0.447845,-0.060471c-0.169098,-0.040344 -0.29834,-0.086777 -0.387604,-0.139297zm4.736847,0.134033l-0.866882,-1.436951c-0.054291,-0.089371 -0.100708,-0.176849 -0.139191,-0.262695l-0.013092,0c-0.047272,0.096375 -0.097198,0.183853 -0.149719,0.262695l-0.88269,1.436951l-0.312622,0l1.190063,-1.899292l-1.11908,-1.867844l0.312622,0l0.843292,1.415909c0.043732,0.073563 0.089355,0.157669 0.136597,0.252167l0.010529,0l0.139191,-0.252167l0.838013,-1.415909l0.302094,0l-1.129578,1.862579l1.155884,1.904556l-0.31543,0z" fill="#fff"/>
   <text transform="matrix(5.21918, 0, 0, 0.489787, -1010.84, 108.604)" xml:space="preserve" text-anchor="start" font-family="Helvetica, Arial, sans-serif" font-size="24" id="svg_7" y="206.751346" x="242.335438" fill-opacity="null" stroke-opacity="null" stroke-width="0" stroke="null" fill="#000000"/>
   <text transform="matrix(0.550295, 0, 0, 0.696846, 119.492, 69.6408)" xml:space="preserve" text-anchor="start" font-family="Helvetica, Arial, sans-serif" font-size="24" id="svg_8" y="203.273514" x="252.023922" fill-opacity="null" stroke-opacity="null" stroke-width="0" stroke="null" fill="#000000">CI works!!!</text>
  </g>
 </g>
</svg>